# xmcd CD database file
#
# Track frame offsets:
#	150
#	13225
#	27075
#	37450
#	48812
#	61620
#	73655
#	84275
#	98482
#	110400
#	122212
#	137682
#	146862
#	158437
#	169137
#	182225
#	195675
#	207567
#	220050
#	230087
#	240612
#	253637
#	264192
#
# Disc length: 3667 seconds
#
# Revision: 0
# Processed by: cddbd v1.5.2PL0 Copyright (c) Steve Scherf et al.
# Submitted via: CDex 2.18
#
DISCID=470e5117
DTITLE=The Mills Brothers - Swing Is The Thing
DYEAR=2008
DGENRE=Jazz
TTITLE0=Organ Grinder's Swing
TTITLE1=Sleepy Head
TTITLE2=The Old Man Of The Mountain
TTITLE3=What's The Reason
TTITLE4=Let Me Dream
TTITLE5=Get Along
TTITLE6=Sweet And Slow
TTITLE7=Jungle Fever
TTITLE8=Caravan
TTITLE9=Put On Your Old Grey Bonnet
TTITLE10=Shoe Shine Boy
TTITLE11=Bugle Call Rag
TTITLE12=Swing It, Sister
TTITLE13=St Louis Blues
TTITLE14=The Love Bug Will Bite You
TTITLE15=Sweet Sue, Just You
TTITLE16=Rockin' Chair Swing
TTITLE17=That's Georgia
TTITLE18=London Rhythm
TTITLE19=It Don't Mean A Thing (If You Ain't Got That Swing)
TTITLE20=Lulu's Back In Town
TTITLE21=Coney Island Washboard
TTITLE22=Swing Is The Thing
EXTD=YEAR: 2008
EXTT0=
EXTT1=
EXTT2=
EXTT3=
EXTT4=
EXTT5=
EXTT6=
EXTT7=
EXTT8=
EXTT9=
EXTT10=
EXTT11=
EXTT12=
EXTT13=
EXTT14=
EXTT15=
EXTT16=
EXTT17=
EXTT18=
EXTT19=
EXTT20=
EXTT21=
EXTT22=
PLAYORDER=
